<?xml version="1.0" ?><svg style="enable-background:new 0 0 512 512;" version="1.1" viewBox="0 0 512 512" xml:space="preserve" xmlns="http://www.w3.org/2000/svg" xmlns:xlink="http://www.w3.org/1999/xlink"><style type="text/css">
	.st0{fill:#16ADE1;}
	.st1{fill:#1B3954;}
</style><g id="Layer_1"/><g id="Layer_2"><g><path class="st1" d="M314.5,248.8l-46.7,46.7c2.1,17.7-4,35.3-16.7,48.1c-11,11-25.7,17.1-41.3,17.1s-30.3-6.1-41.3-17.1    c-11-11-17.1-25.7-17.1-41.3c0-15.6,6.1-30.3,17.1-41.3c11-11,25.7-17.1,41.3-17.1c2.3,0,4.5,0.1,6.8,0.4l46.7-46.7l-27.9-27.9    c-13.6-13.6-27.5-5.5-41.1,8.1l-32,32l0.3,0.3c13.4,13.4-2.4,28.1-21.2,31c-23.2,3.5-45.5,14.2-63.4,32.1    c-44.5,44.5-27.8,99.8,16.7,144.3c44.5,44.5,99.9,61.2,144.3,16.7c17.9-17.9,28.6-40.2,32.1-63.4c2.8-18.8,17.5-34.6,31-21.2    l0.3,0.3l32-32c13.6-13.6,21.7-27.5,8.1-41.1L314.5,248.8z M179.5,418.6l-86.2-86.2l18-18l86.2,86.2L179.5,418.6z"/><path class="st0" d="M175.5,268.1c-18.9,18.9-18.9,49.6,0,68.5c18.9,18.9,49.6,18.9,68.5,0c12.1-12.1,16.4-28.9,13.1-44.5    c-1.9-8.8-6.3-17.2-13.1-24c-6.8-6.8-15.2-11.2-24-13.1C204.4,251.6,187.5,256,175.5,268.1z"/><path class="st1" d="M228,246.8c8.6,2.8,16.5,7.7,23,14.2c6.5,6.5,11.3,14.3,14.2,23l120.9-121L349,125.9L228,246.8z"/><path class="st0" d="M458.7,118.2l-8.2-8.2c-0.1-0.1-0.3-0.2-0.4-0.3l6.9-8.6c3.9-4.8,3.5-11.7-0.9-16.1L427,55.9    c-4.4-4.4-11.3-4.7-16.1-0.9l-8.6,6.9c-0.1-0.1-0.2-0.3-0.3-0.4l-8.2-8.2c-2-2-5.1-2-7.1,0c-2,2-2,5.1,0,7.1l7.9,7.9l-38.9,31.4    c-5.6,4.5-6,12.9-1,17.9l39.8,39.8c5.1,5.1,13.4,4.6,17.9-1l31.4-38.9l7.9,7.9c1,1,2.3,1.5,3.5,1.5s2.6-0.5,3.5-1.5    C460.7,123.3,460.7,120.1,458.7,118.2z"/></g></g></svg>